# xmcd
#
# Track frame offsets:
# 150
# 18071
# 39520
# 53622
# 66814
# 84288
# 108706
# 127280
# 149620
# 170282
# 190039
# 212209
# 231379
# 254874
# 271254
# 291269
# 307514
#
# Disc length: 4338 seconds
#
#
# Revision: 0
# Processed by: cddbd v1.5.1PL2 Copyright (c) Steve Scherf et al.
# Submitted via: FreeRIP 2.944 
#
DISCID=f810f011
DTITLE=Wilson Paim - Dos Festivais, Da Vida! - Wilson Paim
DYEAR=2006
DGENRE=Gaúcha
TTITLE0=Pelos Fogões
TTITLE1=Paixão Campesina
TTITLE2=Um Canto de Amor Apenas
TTITLE3=Era Primavera
TTITLE4=Pastor Farrapo
TTITLE5=De Um Campesino Romance
TTITLE6=O Doce da Paixão
TTITLE7=Ainda Existe Um Lugar
TTITLE8=Universo dos Meus Sonhos
TTITLE9=Cambichos de Uma Flor
TTITLE10=Pedaços da Minha Infância
TTITLE11=Bugio Nativista
TTITLE12=Girassol
TTITLE13=Cevador
TTITLE14=O Beija-Flor e a Rosa
TTITLE15=Reculutando Lembranças
TTITLE16=Martim-Pescador
EXTD=
EXTT0=
EXTT1=
EXTT2=
EXTT3=
EXTT4=
EXTT5=
EXTT6=
EXTT7=
EXTT8=
EXTT9=
EXTT10=
EXTT11=
EXTT12=
EXTT13=
EXTT14=
EXTT15=
EXTT16=
PLAYORDER=
